<svg width="1440" height="600" viewBox="0 0 1440 600" fill="none" xmlns="http://www.w3.org/2000/svg">
<path d="M0 0H1440V600H0V0Z" fill="#A1E2EB"/>
<path d="M75.04 211.96C70.56 211.96 66.2667 211.373 62.16 210.2C58.0533 208.973 54.7467 207.4 52.24 205.48L56.64 195.72C59.04 197.427 61.8667 198.84 65.12 199.96C68.4267 201.027 71.76 201.56 75.12 201.56C77.68 201.56 79.7333 201.32 81.28 200.84C82.88 200.307 84.0533 199.587 84.8 198.68C85.5467 197.773 85.92 196.733 85.92 195.56C85.92 194.067 85.3333 192.893 84.16 192.04C82.9867 191.133 81.44 190.413 79.52 189.88C77.6 189.293 75.4667 188.76 73.12 188.28C70.8267 187.747 68.5067 187.107 66.16 186.36C63.8667 185.613 61.76 184.653 59.84 183.48C57.92 182.307 56.3467 180.76 55.12 178.84C53.9467 176.92 53.36 174.467 53.36 171.48C53.36 168.28 54.2133 165.373 55.92 162.76C57.68 160.093 60.2933 157.987 63.76 156.44C67.28 154.84 71.68 154.04 76.96 154.04C80.48 154.04 83.9467 154.467 87.36 155.32C90.7733 156.12 93.7867 157.347 96.4 159L92.4 168.84C89.7867 167.347 87.1733 166.253 84.56 165.56C81.9467 164.813 79.3867 164.44 76.88 164.44C74.3733 164.44 72.32 164.733 70.72 165.32C69.12 165.907 67.9733 166.68 67.28 167.64C66.5867 168.547 66.24 169.613 66.24 170.84C66.24 172.28 66.8267 173.453 68 174.36C69.1733 175.213 70.72 175.907 72.64 176.44C74.56 176.973 76.6667 177.507 78.96 178.04C81.3067 178.573 83.6267 179.187 85.92 179.88C88.2667 180.573 90.4 181.507 92.32 182.68C94.24 183.853 95.7867 185.4 96.96 187.32C98.1867 189.24 98.8 191.667 98.8 194.6C98.8 197.747 97.92 200.627 96.16 203.24C94.4 205.853 91.76 207.96 88.24 209.56C84.7733 211.16 80.3733 211.96 75.04 211.96ZM133.176 211V202.6L132.376 200.76V185.72C132.376 183.053 131.549 180.973 129.896 179.48C128.296 177.987 125.816 177.24 122.456 177.24C120.162 177.24 117.896 177.613 115.656 178.36C113.469 179.053 111.602 180.013 110.056 181.24L105.576 172.52C107.922 170.867 110.749 169.587 114.056 168.68C117.362 167.773 120.722 167.32 124.136 167.32C130.696 167.32 135.789 168.867 139.416 171.96C143.042 175.053 144.856 179.88 144.856 186.44V211H133.176ZM120.056 211.64C116.696 211.64 113.816 211.08 111.416 209.96C109.016 208.787 107.176 207.213 105.896 205.24C104.616 203.267 103.976 201.053 103.976 198.6C103.976 196.04 104.589 193.8 105.816 191.88C107.096 189.96 109.096 188.467 111.816 187.4C114.536 186.28 118.082 185.72 122.456 185.72H133.896V193H123.816C120.882 193 118.856 193.48 117.736 194.44C116.669 195.4 116.136 196.6 116.136 198.04C116.136 199.64 116.749 200.92 117.976 201.88C119.256 202.787 120.989 203.24 123.176 203.24C125.256 203.24 127.122 202.76 128.776 201.8C130.429 200.787 131.629 199.32 132.376 197.4L134.296 203.16C133.389 205.933 131.736 208.04 129.336 209.48C126.936 210.92 123.842 211.64 120.056 211.64ZM156.151 211V151.64H168.631V211H156.151ZM201.573 211.64C196.666 211.64 192.346 210.68 188.613 208.76C184.933 206.84 182.08 204.227 180.053 200.92C178.026 197.56 177.013 193.747 177.013 189.48C177.013 185.16 178 181.347 179.973 178.04C182 174.68 184.746 172.067 188.213 170.2C191.68 168.28 195.6 167.32 199.973 167.32C204.186 167.32 207.973 168.227 211.333 170.04C214.746 171.8 217.44 174.36 219.413 177.72C221.386 181.027 222.373 185 222.373 189.64C222.373 190.12 222.346 190.68 222.293 191.32C222.24 191.907 222.186 192.467 222.133 193H187.173V185.72H215.573L210.773 187.88C210.773 185.64 210.32 183.693 209.413 182.04C208.506 180.387 207.253 179.107 205.653 178.2C204.053 177.24 202.186 176.76 200.053 176.76C197.92 176.76 196.026 177.24 194.373 178.2C192.773 179.107 191.52 180.413 190.613 182.12C189.706 183.773 189.253 185.747 189.253 188.04V189.96C189.253 192.307 189.76 194.387 190.773 196.2C191.84 197.96 193.306 199.32 195.173 200.28C197.093 201.187 199.333 201.64 201.893 201.64C204.186 201.64 206.186 201.293 207.893 200.6C209.653 199.907 211.253 198.867 212.693 197.48L219.333 204.68C217.36 206.92 214.88 208.653 211.893 209.88C208.906 211.053 205.466 211.64 201.573 211.64Z" fill="white"/>
<path d="M55.229 301V256.9H63.671L89.69 288.652H85.595V256.9H95.675V301H87.296L61.214 269.248H65.309V301H55.229ZM122.237 301.504C118.373 301.504 114.971 300.748 112.031 299.236C109.133 297.724 106.886 295.666 105.29 293.062C103.694 290.416 102.896 287.413 102.896 284.053C102.896 280.651 103.673 277.648 105.227 275.044C106.823 272.398 108.986 270.34 111.716 268.87C114.446 267.358 117.533 266.602 120.977 266.602C124.295 266.602 127.277 267.316 129.923 268.744C132.611 270.13 134.732 272.146 136.286 274.792C137.84 277.396 138.617 280.525 138.617 284.179C138.617 284.557 138.596 284.998 138.554 285.502C138.512 285.964 138.47 286.405 138.428 286.825H110.897V281.092H133.262L129.482 282.793C129.482 281.029 129.125 279.496 128.411 278.194C127.697 276.892 126.71 275.884 125.45 275.17C124.19 274.414 122.72 274.036 121.04 274.036C119.36 274.036 117.869 274.414 116.567 275.17C115.307 275.884 114.32 276.913 113.606 278.257C112.892 279.559 112.535 281.113 112.535 282.919V284.431C112.535 286.279 112.934 287.917 113.732 289.345C114.572 290.731 115.727 291.802 117.197 292.558C118.709 293.272 120.473 293.629 122.489 293.629C124.295 293.629 125.87 293.356 127.214 292.81C128.6 292.264 129.86 291.445 130.994 290.353L136.223 296.023C134.669 297.787 132.716 299.152 130.364 300.118C128.012 301.042 125.303 301.504 122.237 301.504ZM152.294 301L140.072 267.106H149.333L159.476 296.275H155.066L165.65 267.106H173.966L184.235 296.275H179.825L190.283 267.106H198.977L186.692 301H177.179L168.17 275.989H171.068L161.744 301H152.294ZM232.791 301.504C229.893 301.504 227.1 301.168 224.412 300.496C221.766 299.782 219.666 298.9 218.112 297.85L221.388 290.794C222.942 291.76 224.769 292.558 226.869 293.188C229.011 293.776 231.111 294.07 233.169 294.07C235.437 294.07 237.033 293.797 237.957 293.251C238.923 292.705 239.406 291.949 239.406 290.983C239.406 290.185 239.028 289.597 238.272 289.219C237.558 288.799 236.592 288.484 235.374 288.274C234.156 288.064 232.812 287.854 231.342 287.644C229.914 287.434 228.465 287.161 226.995 286.825C225.525 286.447 224.181 285.901 222.963 285.187C221.745 284.473 220.758 283.507 220.002 282.289C219.288 281.071 218.931 279.496 218.931 277.564C218.931 275.422 219.54 273.532 220.758 271.894C222.018 270.256 223.824 268.975 226.176 268.051C228.528 267.085 231.342 266.602 234.618 266.602C236.928 266.602 239.28 266.854 241.674 267.358C244.068 267.862 246.063 268.597 247.659 269.563L244.383 276.556C242.745 275.59 241.086 274.939 239.406 274.603C237.768 274.225 236.172 274.036 234.618 274.036C232.434 274.036 230.838 274.33 229.83 274.918C228.822 275.506 228.318 276.262 228.318 277.186C228.318 278.026 228.675 278.656 229.389 279.076C230.145 279.496 231.132 279.832 232.35 280.084C233.568 280.336 234.891 280.567 236.319 280.777C237.789 280.945 239.259 281.218 240.729 281.596C242.199 281.974 243.522 282.52 244.698 283.234C245.916 283.906 246.903 284.851 247.659 286.069C248.415 287.245 248.793 288.799 248.793 290.731C248.793 292.831 248.163 294.7 246.903 296.338C245.643 297.934 243.816 299.194 241.422 300.118C239.07 301.042 236.193 301.504 232.791 301.504ZM271.677 301.504C267.813 301.504 264.411 300.748 261.471 299.236C258.573 297.724 256.326 295.666 254.73 293.062C253.134 290.416 252.336 287.413 252.336 284.053C252.336 280.651 253.113 277.648 254.667 275.044C256.263 272.398 258.426 270.34 261.156 268.87C263.886 267.358 266.973 266.602 270.417 266.602C273.735 266.602 276.717 267.316 279.363 268.744C282.051 270.13 284.172 272.146 285.726 274.792C287.28 277.396 288.057 280.525 288.057 284.179C288.057 284.557 288.036 284.998 287.994 285.502C287.952 285.964 287.91 286.405 287.868 286.825H260.337V281.092H282.702L278.922 282.793C278.922 281.029 278.565 279.496 277.851 278.194C277.137 276.892 276.15 275.884 274.89 275.17C273.63 274.414 272.16 274.036 270.48 274.036C268.8 274.036 267.309 274.414 266.007 275.17C264.747 275.884 263.76 276.913 263.046 278.257C262.332 279.559 261.975 281.113 261.975 282.919V284.431C261.975 286.279 262.374 287.917 263.172 289.345C264.012 290.731 265.167 291.802 266.637 292.558C268.149 293.272 269.913 293.629 271.929 293.629C273.735 293.629 275.31 293.356 276.654 292.81C278.04 292.264 279.3 291.445 280.434 290.353L285.663 296.023C284.109 297.787 282.156 299.152 279.804 300.118C277.452 301.042 274.743 301.504 271.677 301.504ZM314.468 301V294.385L313.838 292.936V281.092C313.838 278.992 313.187 277.354 311.885 276.178C310.625 275.002 308.672 274.414 306.026 274.414C304.22 274.414 302.435 274.708 300.671 275.296C298.949 275.842 297.479 276.598 296.261 277.564L292.733 270.697C294.581 269.395 296.807 268.387 299.411 267.673C302.015 266.959 304.661 266.602 307.349 266.602C312.515 266.602 316.526 267.82 319.382 270.256C322.238 272.692 323.666 276.493 323.666 281.659V301H314.468ZM304.136 301.504C301.49 301.504 299.222 301.063 297.332 300.181C295.442 299.257 293.993 298.018 292.985 296.464C291.977 294.91 291.473 293.167 291.473 291.235C291.473 289.219 291.956 287.455 292.922 285.943C293.93 284.431 295.505 283.255 297.647 282.415C299.789 281.533 302.582 281.092 306.026 281.092H315.035V286.825H307.097C304.787 286.825 303.191 287.203 302.309 287.959C301.469 288.715 301.049 289.66 301.049 290.794C301.049 292.054 301.532 293.062 302.498 293.818C303.506 294.532 304.871 294.889 306.593 294.889C308.231 294.889 309.701 294.511 311.003 293.755C312.305 292.957 313.25 291.802 313.838 290.29L315.35 294.826C314.636 297.01 313.334 298.669 311.444 299.803C309.554 300.937 307.118 301.504 304.136 301.504ZM343.963 301.504C341.065 301.504 338.272 301.168 335.584 300.496C332.938 299.782 330.838 298.9 329.284 297.85L332.56 290.794C334.114 291.76 335.941 292.558 338.041 293.188C340.183 293.776 342.283 294.07 344.341 294.07C346.609 294.07 348.205 293.797 349.129 293.251C350.095 292.705 350.578 291.949 350.578 290.983C350.578 290.185 350.2 289.597 349.444 289.219C348.73 288.799 347.764 288.484 346.546 288.274C345.328 288.064 343.984 287.854 342.514 287.644C341.086 287.434 339.637 287.161 338.167 286.825C336.697 286.447 335.353 285.901 334.135 285.187C332.917 284.473 331.93 283.507 331.174 282.289C330.46 281.071 330.103 279.496 330.103 277.564C330.103 275.422 330.712 273.532 331.93 271.894C333.19 270.256 334.996 268.975 337.348 268.051C339.7 267.085 342.514 266.602 345.79 266.602C348.1 266.602 350.452 266.854 352.846 267.358C355.24 267.862 357.235 268.597 358.831 269.563L355.555 276.556C353.917 275.59 352.258 274.939 350.578 274.603C348.94 274.225 347.344 274.036 345.79 274.036C343.606 274.036 342.01 274.33 341.002 274.918C339.994 275.506 339.49 276.262 339.49 277.186C339.49 278.026 339.847 278.656 340.561 279.076C341.317 279.496 342.304 279.832 343.522 280.084C344.74 280.336 346.063 280.567 347.491 280.777C348.961 280.945 350.431 281.218 351.901 281.596C353.371 281.974 354.694 282.52 355.87 283.234C357.088 283.906 358.075 284.851 358.831 286.069C359.587 287.245 359.965 288.799 359.965 290.731C359.965 292.831 359.335 294.7 358.075 296.338C356.815 297.934 354.988 299.194 352.594 300.118C350.242 301.042 347.365 301.504 343.963 301.504ZM382.157 301.504C378.545 301.504 375.332 300.748 372.518 299.236C369.746 297.724 367.541 295.666 365.903 293.062C364.307 290.416 363.509 287.413 363.509 284.053C363.509 280.651 364.307 277.648 365.903 275.044C367.541 272.398 369.746 270.34 372.518 268.87C375.332 267.358 378.545 266.602 382.157 266.602C385.727 266.602 388.919 267.358 391.733 268.87C394.547 270.34 396.752 272.377 398.348 274.981C399.944 277.585 400.742 280.609 400.742 284.053C400.742 287.413 399.944 290.416 398.348 293.062C396.752 295.666 394.547 297.724 391.733 299.236C388.919 300.748 385.727 301.504 382.157 301.504ZM382.157 293.44C383.795 293.44 385.265 293.062 386.567 292.306C387.869 291.55 388.898 290.479 389.654 289.093C390.41 287.665 390.788 285.985 390.788 284.053C390.788 282.079 390.41 280.399 389.654 279.013C388.898 277.627 387.869 276.556 386.567 275.8C385.265 275.044 383.795 274.666 382.157 274.666C380.519 274.666 379.049 275.044 377.747 275.8C376.445 276.556 375.395 277.627 374.597 279.013C373.841 280.399 373.463 282.079 373.463 284.053C373.463 285.985 373.841 287.665 374.597 289.093C375.395 290.479 376.445 291.55 377.747 292.306C379.049 293.062 380.519 293.44 382.157 293.44ZM427.912 266.602C430.6 266.602 432.994 267.148 435.094 268.24C437.236 269.29 438.916 270.928 440.134 273.154C441.352 275.338 441.961 278.152 441.961 281.596V301H432.133V283.108C432.133 280.378 431.524 278.362 430.306 277.06C429.13 275.758 427.45 275.107 425.266 275.107C423.712 275.107 422.305 275.443 421.045 276.115C419.827 276.745 418.861 277.732 418.147 279.076C417.475 280.42 417.139 282.142 417.139 284.242V301H407.311V267.106H416.698V276.493L414.934 273.658C416.152 271.39 417.895 269.647 420.163 268.429C422.431 267.211 425.014 266.602 427.912 266.602Z" fill="white"/>
<rect x="51" y="379" width="155" height="82" rx="13" fill="white"/>
<path d="M108.825 429.3C107.425 429.3 106.083 429.117 104.8 428.75C103.517 428.367 102.483 427.875 101.7 427.275L103.075 424.225C103.825 424.758 104.708 425.2 105.725 425.55C106.758 425.883 107.8 426.05 108.85 426.05C109.65 426.05 110.292 425.975 110.775 425.825C111.275 425.658 111.642 425.433 111.875 425.15C112.108 424.867 112.225 424.542 112.225 424.175C112.225 423.708 112.042 423.342 111.675 423.075C111.308 422.792 110.825 422.567 110.225 422.4C109.625 422.217 108.958 422.05 108.225 421.9C107.508 421.733 106.783 421.533 106.05 421.3C105.333 421.067 104.675 420.767 104.075 420.4C103.475 420.033 102.983 419.55 102.6 418.95C102.233 418.35 102.05 417.583 102.05 416.65C102.05 415.65 102.317 414.742 102.85 413.925C103.4 413.092 104.217 412.433 105.3 411.95C106.4 411.45 107.775 411.2 109.425 411.2C110.525 411.2 111.608 411.333 112.675 411.6C113.742 411.85 114.683 412.233 115.5 412.75L114.25 415.825C113.433 415.358 112.617 415.017 111.8 414.8C110.983 414.567 110.183 414.45 109.4 414.45C108.617 414.45 107.975 414.542 107.475 414.725C106.975 414.908 106.617 415.15 106.4 415.45C106.183 415.733 106.075 416.067 106.075 416.45C106.075 416.9 106.258 417.267 106.625 417.55C106.992 417.817 107.475 418.033 108.075 418.2C108.675 418.367 109.333 418.533 110.05 418.7C110.783 418.867 111.508 419.058 112.225 419.275C112.958 419.492 113.625 419.783 114.225 420.15C114.825 420.517 115.308 421 115.675 421.6C116.058 422.2 116.25 422.958 116.25 423.875C116.25 424.858 115.975 425.758 115.425 426.575C114.875 427.392 114.05 428.05 112.95 428.55C111.867 429.05 110.492 429.3 108.825 429.3ZM126.992 429V426.375L126.742 425.8V421.1C126.742 420.267 126.484 419.617 125.967 419.15C125.467 418.683 124.692 418.45 123.642 418.45C122.926 418.45 122.217 418.567 121.517 418.8C120.834 419.017 120.251 419.317 119.767 419.7L118.367 416.975C119.101 416.458 119.984 416.058 121.017 415.775C122.051 415.492 123.101 415.35 124.167 415.35C126.217 415.35 127.809 415.833 128.942 416.8C130.076 417.767 130.642 419.275 130.642 421.325V429H126.992ZM122.892 429.2C121.842 429.2 120.942 429.025 120.192 428.675C119.442 428.308 118.867 427.817 118.467 427.2C118.067 426.583 117.867 425.892 117.867 425.125C117.867 424.325 118.059 423.625 118.442 423.025C118.842 422.425 119.467 421.958 120.317 421.625C121.167 421.275 122.276 421.1 123.642 421.1H127.217V423.375H124.067C123.151 423.375 122.517 423.525 122.167 423.825C121.834 424.125 121.667 424.5 121.667 424.95C121.667 425.45 121.859 425.85 122.242 426.15C122.642 426.433 123.184 426.575 123.867 426.575C124.517 426.575 125.101 426.425 125.617 426.125C126.134 425.808 126.509 425.35 126.742 424.75L127.342 426.55C127.059 427.417 126.542 428.075 125.792 428.525C125.042 428.975 124.076 429.2 122.892 429.2ZM134.172 429V410.45H138.072V429H134.172ZM148.367 429.2C146.833 429.2 145.483 428.9 144.317 428.3C143.167 427.7 142.275 426.883 141.642 425.85C141.008 424.8 140.692 423.608 140.692 422.275C140.692 420.925 141 419.733 141.617 418.7C142.25 417.65 143.108 416.833 144.192 416.25C145.275 415.65 146.5 415.35 147.867 415.35C149.183 415.35 150.367 415.633 151.417 416.2C152.483 416.75 153.325 417.55 153.942 418.6C154.558 419.633 154.867 420.875 154.867 422.325C154.867 422.475 154.858 422.65 154.842 422.85C154.825 423.033 154.808 423.208 154.792 423.375H143.867V421.1H152.742L151.242 421.775C151.242 421.075 151.1 420.467 150.817 419.95C150.533 419.433 150.142 419.033 149.642 418.75C149.142 418.45 148.558 418.3 147.892 418.3C147.225 418.3 146.633 418.45 146.117 418.75C145.617 419.033 145.225 419.442 144.942 419.975C144.658 420.492 144.517 421.108 144.517 421.825V422.425C144.517 423.158 144.675 423.808 144.992 424.375C145.325 424.925 145.783 425.35 146.367 425.65C146.967 425.933 147.667 426.075 148.467 426.075C149.183 426.075 149.808 425.967 150.342 425.75C150.892 425.533 151.392 425.208 151.842 424.775L153.917 427.025C153.3 427.725 152.525 428.267 151.592 428.65C150.658 429.017 149.583 429.2 148.367 429.2Z" fill="#2D2D2D"/>
</svg>
